<mxfile host="65bd71144e">
    <diagram id="tEkDgDE-wPQ_KRk3QcAn" name="Page-1">
        <mxGraphModel dx="1074" dy="709" grid="1" gridSize="10" guides="1" tooltips="1" connect="1" arrows="1" fold="1" page="1" pageScale="1" pageWidth="827" pageHeight="1169" math="0" shadow="0">
            <root>
                <mxCell id="0"/>
                <mxCell id="1" parent="0"/>
                <mxCell id="2" style="edgeStyle=none;html=1;" edge="1" parent="1" source="3" target="5">
                    <mxGeometry relative="1" as="geometry"/>
                </mxCell>
                <mxCell id="3" value="Start" style="strokeWidth=2;html=1;shape=mxgraph.flowchart.terminator;whiteSpace=wrap;" vertex="1" parent="1">
                    <mxGeometry x="358" y="10" width="100" height="60" as="geometry"/>
                </mxCell>
                <mxCell id="4" style="edgeStyle=none;html=1;" edge="1" parent="1" source="5">
                    <mxGeometry relative="1" as="geometry">
                        <mxPoint x="410" y="260" as="targetPoint"/>
                    </mxGeometry>
                </mxCell>
                <mxCell id="5" value="Get number_inserted_&lt;br&gt;by_user&lt;br&gt;&amp;nbsp;0-9" style="shape=parallelogram;html=1;strokeWidth=2;perimeter=parallelogramPerimeter;whiteSpace=wrap;rounded=1;arcSize=12;size=0.23;" vertex="1" parent="1">
                    <mxGeometry x="318" y="130" width="180" height="70" as="geometry"/>
                </mxCell>
                <mxCell id="6" style="edgeStyle=elbowEdgeStyle;rounded=0;html=1;fontSize=18;" edge="1" parent="1" target="7">
                    <mxGeometry relative="1" as="geometry">
                        <mxPoint x="404" y="830" as="sourcePoint"/>
                    </mxGeometry>
                </mxCell>
                <mxCell id="7" value="Stop" style="strokeWidth=2;html=1;shape=mxgraph.flowchart.terminator;whiteSpace=wrap;" vertex="1" parent="1">
                    <mxGeometry x="354" y="870" width="100" height="60" as="geometry"/>
                </mxCell>
                <mxCell id="8" style="edgeStyle=none;html=1;" edge="1" parent="1" source="9">
                    <mxGeometry relative="1" as="geometry">
                        <mxPoint x="411" y="420" as="targetPoint"/>
                    </mxGeometry>
                </mxCell>
                <mxCell id="9" value="Create a random number" style="rounded=1;whiteSpace=wrap;html=1;absoluteArcSize=1;arcSize=14;strokeWidth=2;" vertex="1" parent="1">
                    <mxGeometry x="360" y="260" width="100" height="100" as="geometry"/>
                </mxCell>
                <mxCell id="10" style="edgeStyle=elbowEdgeStyle;html=1;fontSize=18;entryX=1;entryY=0.5;entryDx=0;entryDy=0;entryPerimeter=0;rounded=0;" edge="1" parent="1" source="11" target="7">
                    <mxGeometry relative="1" as="geometry">
                        <mxPoint x="620" y="790" as="targetPoint"/>
                        <Array as="points">
                            <mxPoint x="620" y="720"/>
                            <mxPoint x="630" y="720"/>
                            <mxPoint x="620" y="610"/>
                            <mxPoint x="730" y="700"/>
                        </Array>
                    </mxGeometry>
                </mxCell>
                <mxCell id="11" value="print( &quot;Not an &lt;br&gt;integer&quot;)" style="shape=parallelogram;html=1;strokeWidth=2;perimeter=parallelogramPerimeter;whiteSpace=wrap;rounded=1;arcSize=12;size=0.23;" vertex="1" parent="1">
                    <mxGeometry x="550" y="520" width="140" height="80" as="geometry"/>
                </mxCell>
                <mxCell id="12" style="edgeStyle=none;html=1;entryX=0.5;entryY=0;entryDx=0;entryDy=0;" edge="1" parent="1" source="14" target="23">
                    <mxGeometry relative="1" as="geometry">
                        <mxPoint x="410" y="530" as="targetPoint"/>
                    </mxGeometry>
                </mxCell>
                <mxCell id="13" style="edgeStyle=orthogonalEdgeStyle;html=1;rounded=0;" edge="1" parent="1" source="14" target="11">
                    <mxGeometry relative="1" as="geometry">
                        <mxPoint x="650" y="510" as="targetPoint"/>
                        <Array as="points">
                            <mxPoint x="620" y="460"/>
                        </Array>
                    </mxGeometry>
                </mxCell>
                <mxCell id="14" value="try" style="rhombus;whiteSpace=wrap;html=1;" vertex="1" parent="1">
                    <mxGeometry x="355.5" y="420" width="109" height="80" as="geometry"/>
                </mxCell>
                <mxCell id="15" style="edgeStyle=orthogonalEdgeStyle;rounded=0;html=1;" edge="1" parent="1" source="17">
                    <mxGeometry relative="1" as="geometry">
                        <mxPoint x="250" y="730" as="targetPoint"/>
                    </mxGeometry>
                </mxCell>
                <mxCell id="16" style="edgeStyle=orthogonalEdgeStyle;rounded=0;html=1;" edge="1" parent="1" source="17">
                    <mxGeometry relative="1" as="geometry">
                        <mxPoint x="540" y="720" as="targetPoint"/>
                    </mxGeometry>
                </mxCell>
                <mxCell id="17" value="If number_inserted_&lt;br&gt;by_user = &lt;br&gt;secret_number" style="rhombus;whiteSpace=wrap;html=1;" vertex="1" parent="1">
                    <mxGeometry x="331" y="624.5" width="158" height="90" as="geometry"/>
                </mxCell>
                <mxCell id="18" value="Exception" style="text;html=1;align=center;verticalAlign=middle;resizable=0;points=[];autosize=1;strokeColor=none;fillColor=none;" vertex="1" parent="1">
                    <mxGeometry x="460" y="470" width="70" height="20" as="geometry"/>
                </mxCell>
                <mxCell id="19" value="yes" style="text;html=1;align=center;verticalAlign=middle;resizable=0;points=[];autosize=1;strokeColor=none;fillColor=none;" vertex="1" parent="1">
                    <mxGeometry x="331" y="480" width="30" height="20" as="geometry"/>
                </mxCell>
                <mxCell id="20" value="print (&quot;you guessed correctly&quot;)&lt;br&gt;&amp;nbsp;" style="shape=parallelogram;html=1;strokeWidth=2;perimeter=parallelogramPerimeter;whiteSpace=wrap;rounded=1;arcSize=12;size=0.23;" vertex="1" parent="1">
                    <mxGeometry x="190" y="730" width="130" height="70" as="geometry"/>
                </mxCell>
                <mxCell id="21" value="print (&quot;you guessed incorrectly&quot;)&lt;br&gt;&amp;nbsp;" style="shape=parallelogram;html=1;strokeWidth=2;perimeter=parallelogramPerimeter;whiteSpace=wrap;rounded=1;arcSize=12;size=0.23;" vertex="1" parent="1">
                    <mxGeometry x="464.5" y="720" width="126" height="80" as="geometry"/>
                </mxCell>
                <mxCell id="22" style="edgeStyle=orthogonalEdgeStyle;rounded=0;html=1;" edge="1" parent="1" source="23" target="17">
                    <mxGeometry relative="1" as="geometry">
                        <Array as="points">
                            <mxPoint x="409" y="660"/>
                            <mxPoint x="409" y="660"/>
                        </Array>
                    </mxGeometry>
                </mxCell>
                <mxCell id="23" value="convert sting to int" style="rounded=1;whiteSpace=wrap;html=1;absoluteArcSize=1;arcSize=14;strokeWidth=2;" vertex="1" parent="1">
                    <mxGeometry x="330" y="535" width="160" height="65" as="geometry"/>
                </mxCell>
                <mxCell id="24" value="" style="endArrow=none;html=1;rounded=0;edgeStyle=elbowEdgeStyle;elbow=vertical;entryX=0.5;entryY=1;entryDx=0;entryDy=0;exitX=0.385;exitY=1;exitDx=0;exitDy=0;exitPerimeter=0;" edge="1" parent="1" source="20" target="21">
                    <mxGeometry width="50" height="50" relative="1" as="geometry">
                        <mxPoint x="239" y="830" as="sourcePoint"/>
                        <mxPoint x="569" y="830" as="targetPoint"/>
                        <Array as="points">
                            <mxPoint x="400" y="830"/>
                            <mxPoint x="255" y="830"/>
                            <mxPoint x="380" y="830"/>
                        </Array>
                    </mxGeometry>
                </mxCell>
                <mxCell id="25" value="yes" style="text;html=1;align=center;verticalAlign=middle;resizable=0;points=[];autosize=1;strokeColor=none;fillColor=none;" vertex="1" parent="1">
                    <mxGeometry x="288" y="640" width="30" height="20" as="geometry"/>
                </mxCell>
                <mxCell id="26" value="No" style="text;html=1;align=center;verticalAlign=middle;resizable=0;points=[];autosize=1;strokeColor=none;fillColor=none;" vertex="1" parent="1">
                    <mxGeometry x="489" y="640" width="30" height="20" as="geometry"/>
                </mxCell>
            </root>
        </mxGraphModel>
    </diagram>
</mxfile>